<?xml version="1.0" encoding="iso-8859-1"?><svg viewBox="0 0 20 12" xmlns="http://www.w3.org/2000/svg"><path d="M0.493273 11.2556C0.164424 10.9268 0 10.5082 0 10C0 9.49178 0.164424 9.07324 0.493273 8.74439L8.74439 0.493273C8.92377 0.313901 9.11809 0.186548 9.32735 0.111211C9.53662 0.0370707 9.76084 0 10 0C10.2392 0 10.4711 0.0448427 10.696 0.134529C10.9196 0.224215 11.1061 0.343796 11.2556 0.493273L19.5067 8.74439C19.8356 9.07324 20 9.49178 20 10C20 10.5082 19.8356 10.9268 19.5067 11.2556C19.1779 11.5845 18.7593 11.7489 18.2511 11.7489C17.7429 11.7489 17.3244 11.5845 16.9955 11.2556L10 4.26009L3.00448 11.2556C2.67564 11.5845 2.2571 11.7489 1.74888 11.7489C1.24066 11.7489 0.822122 11.5845 0.493273 11.2556Z"/></svg>
