<svg xmlns="http://www.w3.org/2000/svg" width="512" height="512" viewBox="0 0 512 512" version="1.1"><path d="M 238 1.013 C 208.956 3.405, 185.910 8.725, 159.250 19.191 C 153.613 21.405, 149 23.643, 149 24.167 C 149 24.690, 148.550 24.840, 148 24.500 C 147.450 24.160, 147 24.385, 147 25 C 147 25.615, 146.550 25.840, 146 25.500 C 145.450 25.160, 145 25.359, 145 25.941 C 145 26.523, 144.663 26.911, 144.250 26.802 C 142.770 26.411, 139 28.157, 139 29.234 C 139 29.839, 138.727 30.060, 138.393 29.727 C 138.060 29.393, 137.272 29.548, 136.643 30.070 C 136.015 30.593, 129.425 34.661, 122 39.110 C 114.575 43.559, 108.350 47.605, 108.167 48.100 C 107.983 48.595, 107.308 49, 106.667 49.001 C 105.533 49.002, 99.659 53.638, 95.395 57.897 C 94.237 59.054, 93.013 60, 92.674 60 C 90.346 60, 54.920 97.548, 53.270 101.765 C 52.997 102.461, 51.477 104.419, 49.891 106.117 C 48.305 107.814, 47.228 109.560, 47.498 109.997 C 47.768 110.433, 47.288 111.059, 46.431 111.388 C 45.574 111.717, 45.124 112.392, 45.431 112.888 C 45.738 113.384, 45.288 114.059, 44.431 114.388 C 43.574 114.717, 43.124 115.392, 43.431 115.888 C 43.738 116.384, 43.288 117.059, 42.431 117.388 C 41.574 117.717, 41.124 118.392, 41.431 118.888 C 41.738 119.384, 41.355 120.034, 40.580 120.331 C 37.887 121.364, 20.301 158.804, 15.136 174.500 C -3.880 232.291, -3.746 283.966, 15.572 342.722 C 21.898 361.963, 44.987 405, 48.983 405 C 49.542 405, 50.002 405.563, 50.004 406.250 C 50.007 406.938, 52.032 409.731, 54.504 412.458 C 56.977 415.185, 59.013 417.660, 59.029 417.958 C 59.102 419.294, 93 452.791, 93 451.526 C 93 451.364, 94.912 452.979, 97.250 455.116 C 99.587 457.252, 102.024 459, 102.666 459 C 103.308 459, 103.983 459.337, 104.167 459.750 C 104.539 460.588, 110.942 465.463, 112.500 466.094 C 115.250 467.210, 136.545 480.367, 136.835 481.130 C 137.020 481.616, 137.582 481.758, 138.085 481.447 C 138.588 481.136, 139 481.385, 139 482 C 139 482.615, 139.450 482.840, 140 482.500 C 140.550 482.160, 141 482.321, 141 482.858 C 141 483.863, 149.908 487.672, 151.250 487.241 C 151.662 487.108, 152 487.416, 152 487.924 C 152 489.150, 169.621 495.981, 184.039 500.345 C 233.618 515.350, 282.317 515.360, 332 500.376 C 341.883 497.395, 355.899 492.104, 357.851 490.617 C 358.594 490.051, 359.839 489.494, 360.619 489.380 C 362.635 489.084, 375.341 483.056, 375.973 482.096 C 376.505 481.287, 392.314 471.504, 399.250 467.691 C 401.313 466.557, 403 465.262, 403 464.814 C 403 464.367, 403.484 464, 404.076 464 C 406.904 464, 422.754 450.336, 439.230 433.695 C 450.437 422.375, 468.174 401, 466.360 401 C 465.952 401, 466.491 400.339, 467.559 399.532 C 468.626 398.724, 469.184 398.049, 468.798 398.032 C 468.412 398.014, 469.191 396.818, 470.529 395.374 C 471.867 393.930, 472.719 392.355, 472.422 391.874 C 472.125 391.393, 472.320 391, 472.855 391 C 475.560 391, 492.079 356.837, 498.014 338.966 C 520.394 271.584, 515.498 202.522, 483.806 138.563 C 476.886 124.596, 471.137 115, 469.691 115 C 469.128 115, 468.949 114.718, 469.294 114.373 C 470.073 113.593, 464.259 105, 462.952 105 C 462.428 105, 462 104.311, 462 103.469 C 462 102.626, 461.325 101.678, 460.500 101.362 C 459.675 101.045, 459 100.327, 459 99.766 C 459 95.367, 412.030 49, 407.574 49 C 407.212 49, 406.070 48.212, 405.035 47.250 C 404.001 46.287, 398.120 42.606, 391.967 39.068 C 385.813 35.530, 380.154 32.011, 379.389 31.247 C 378.625 30.482, 377.993 30.227, 377.985 30.679 C 377.976 31.130, 377.631 30.968, 377.217 30.318 C 376.194 28.708, 363.879 22.957, 362.836 23.601 C 362.376 23.886, 362 23.713, 362 23.217 C 362 21.500, 337.523 12.870, 320.500 8.586 C 294.620 2.071, 261.767 -0.944, 238 1.013 M 223.247 43.580 C 63.713 66.038, -14.150 256.099, 83.305 385.175 C 104.239 412.900, 112.287 418.832, 121 412.957 C 147.720 394.936, 185.636 382.233, 228.179 377.047 C 249.188 374.487, 250.118 373.389, 248.448 353.128 C 247.482 341.409, 246.168 337.584, 239.763 327.847 C 219.577 297.164, 219.450 278.164, 239.198 243.654 C 252.012 221.261, 258.741 219.373, 268.824 235.339 C 288.684 266.785, 292.707 291.168, 281.626 312.936 C 279.788 316.546, 275.617 324.675, 272.356 331 C 256.782 361.213, 259.723 373.914, 283 376.968 C 328.404 382.925, 356.819 391.614, 383.152 407.596 C 400.518 418.135, 403.198 417.140, 423.824 392.500 C 550.325 241.384, 420.644 15.793, 223.247 43.580 M 250.824 72.509 C 240.273 80.730, 227.769 101.010, 220.743 121.297 C 212.623 144.747, 218.358 168.562, 236.407 186.346 C 240.787 190.661, 245.684 196.286, 247.289 198.846 C 254.623 210.538, 260.950 211.355, 263.357 200.920 C 263.688 199.486, 268.745 193.492, 274.748 187.420 C 303.040 158.801, 303.166 134.798, 275.255 91 C 261.037 68.690, 258.343 66.651, 250.824 72.509 M 107.359 110.414 C 102.542 112.558, 101.630 116.707, 102.303 133.416 C 103.774 169.883, 113.693 183.391, 143.500 189.518 C 150.650 190.988, 157.904 192.775, 159.621 193.490 L 162.742 194.790 163.277 189.645 C 163.572 186.815, 165.536 180.675, 167.642 176 C 175.407 158.768, 171.885 142.395, 157.602 129.320 C 143.731 116.624, 116.461 106.362, 107.359 110.414 M 394 111.093 C 348.679 122.705, 335.707 140.221, 346.391 175.377 C 348.387 181.945, 350 189.400, 350 192.056 L 350 196.859 354.355 194.425 C 357.260 192.801, 362.173 191.486, 369.105 190.476 C 398.753 186.155, 411.856 168.240, 412.239 131.500 C 412.465 109.806, 409.961 107.004, 394 111.093 M 183.750 174.045 C 174.737 179.477, 177.551 213.530, 188.256 228.575 C 200.963 246.434, 195.493 253.529, 180.639 238.455 C 173.501 231.210, 168.315 229.675, 165.944 234.105 C 162.998 239.609, 167.271 246.415, 178.396 253.943 C 189.196 261.251, 191.602 265.004, 189.807 271.750 C 188.652 276.094, 186.988 275.946, 176.846 270.602 C 172.256 268.183, 166.630 265.702, 164.345 265.089 C 157.019 263.123, 155.687 261.319, 154.913 252.312 C 152.124 219.866, 97.997 207.792, 63.964 232.025 L 61.029 234.115 64.142 240.308 C 84.756 281.312, 112.657 295.977, 143.247 281.886 C 154.075 276.898, 156.943 277.009, 169.916 282.915 C 174.637 285.064, 182.100 288.236, 186.500 289.964 C 196.731 293.983, 201.016 296.807, 208.811 304.668 C 224.513 320.505, 226.583 314.718, 213.986 290.200 C 203.319 269.438, 203.004 263.268, 211.783 247 C 222.868 226.461, 222.500 227.492, 222.500 216.953 C 222.500 195.295, 196.416 166.411, 183.750 174.045 M 321.734 174.432 C 291.324 185.282, 283.228 212.276, 300.456 245.378 C 310.339 264.366, 310.237 269.211, 299.490 291.465 C 294.577 301.639, 291 311.431, 291 314.707 C 291 317.130, 296.070 313.633, 302.812 306.560 C 319.846 288.690, 355.765 274.835, 368.501 281.221 C 399.299 296.663, 423.203 284.074, 450.857 237.849 L 453.041 234.197 448.271 231.265 C 411.706 208.789, 364.418 219.470, 359.987 251.205 C 358.751 260.053, 356.817 262.913, 350.397 265.387 C 347.704 266.424, 340.825 269.474, 335.111 272.164 C 329.397 274.854, 324.561 276.894, 324.365 276.698 C 320.047 272.380, 324.179 261.561, 332.318 255.878 C 346.445 246.015, 351.655 239.174, 348.596 234.506 C 345.756 230.172, 341.921 231.096, 334.644 237.866 C 316.801 254.465, 311.043 248.022, 325.220 227.321 C 332.411 216.821, 333.484 211.780, 332.694 192.215 C 331.855 171.465, 331.530 170.936, 321.734 174.432 M 0.310 258.500 C 0.315 261.800, 0.502 263.029, 0.725 261.232 C 0.947 259.435, 0.943 256.735, 0.715 255.232 C 0.486 253.729, 0.304 255.200, 0.310 258.500 M 150.500 300.698 C 143.388 301.641, 128.007 306.772, 123.283 309.777 L 121.066 311.187 124.142 317.344 C 143.717 356.511, 168.026 370.122, 200.332 360.006 L 211.144 356.620 217.486 358.310 C 224.748 360.245, 228 360.449, 228 358.968 C 228 356.562, 224.966 351.052, 220.116 344.648 C 217.261 340.880, 213.532 335.030, 211.828 331.648 C 197.992 304.192, 182.625 296.437, 150.500 300.698 M 334.389 301.417 C 322.644 304.109, 313.966 310.324, 310.281 318.684 C 302.531 336.262, 301.876 337.358, 294.627 344.867 C 281.844 358.109, 282.029 364.617, 295 358 C 300.199 355.348, 301.837 355.458, 310.225 359.028 C 333.834 369.074, 356.524 361.950, 375.597 338.500 C 387.216 324.215, 393 315.243, 393 311.504 C 393 304.869, 350.924 297.628, 334.389 301.417" stroke="none" fill="#056305" fill-rule="evenodd"/><path d="M 243.250 0.689 C 244.213 0.941, 245.787 0.941, 246.750 0.689 C 247.713 0.438, 246.925 0.232, 245 0.232 C 243.075 0.232, 242.287 0.438, 243.250 0.689 M 223.247 43.580 C 63.713 66.038, -14.150 256.099, 83.305 385.175 C 104.239 412.900, 112.287 418.832, 121 412.957 C 147.720 394.936, 185.636 382.233, 228.179 377.047 C 249.188 374.487, 250.118 373.389, 248.448 353.128 C 247.482 341.409, 246.168 337.584, 239.763 327.847 C 219.577 297.164, 219.450 278.164, 239.198 243.654 C 252.012 221.261, 258.741 219.373, 268.824 235.339 C 288.684 266.785, 292.707 291.168, 281.626 312.936 C 279.788 316.546, 275.617 324.675, 272.356 331 C 256.782 361.213, 259.723 373.914, 283 376.968 C 328.404 382.925, 356.819 391.614, 383.152 407.596 C 400.518 418.135, 403.198 417.140, 423.824 392.500 C 550.325 241.384, 420.644 15.793, 223.247 43.580 M 250.824 72.509 C 240.273 80.730, 227.769 101.010, 220.743 121.297 C 212.623 144.747, 218.358 168.562, 236.407 186.346 C 240.787 190.661, 245.684 196.286, 247.289 198.846 C 254.623 210.538, 260.950 211.355, 263.357 200.920 C 263.688 199.486, 268.745 193.492, 274.748 187.420 C 303.040 158.801, 303.166 134.798, 275.255 91 C 261.037 68.690, 258.343 66.651, 250.824 72.509 M 107.359 110.414 C 102.542 112.558, 101.630 116.707, 102.303 133.416 C 103.774 169.883, 113.693 183.391, 143.500 189.518 C 150.650 190.988, 157.904 192.775, 159.621 193.490 L 162.742 194.790 163.277 189.645 C 163.572 186.815, 165.536 180.675, 167.642 176 C 175.407 158.768, 171.885 142.395, 157.602 129.320 C 143.731 116.624, 116.461 106.362, 107.359 110.414 M 394 111.093 C 348.679 122.705, 335.707 140.221, 346.391 175.377 C 348.387 181.945, 350 189.400, 350 192.056 L 350 196.859 354.355 194.425 C 357.260 192.801, 362.173 191.486, 369.105 190.476 C 398.753 186.155, 411.856 168.240, 412.239 131.500 C 412.465 109.806, 409.961 107.004, 394 111.093 M 183.750 174.045 C 174.737 179.477, 177.551 213.530, 188.256 228.575 C 200.963 246.434, 195.493 253.529, 180.639 238.455 C 173.501 231.210, 168.315 229.675, 165.944 234.105 C 162.998 239.609, 167.271 246.415, 178.396 253.943 C 189.196 261.251, 191.602 265.004, 189.807 271.750 C 188.652 276.094, 186.988 275.946, 176.846 270.602 C 172.256 268.183, 166.630 265.702, 164.345 265.089 C 157.019 263.123, 155.687 261.319, 154.913 252.312 C 152.124 219.866, 97.997 207.792, 63.964 232.025 L 61.029 234.115 64.142 240.308 C 84.756 281.312, 112.657 295.977, 143.247 281.886 C 154.075 276.898, 156.943 277.009, 169.916 282.915 C 174.637 285.064, 182.100 288.236, 186.500 289.964 C 196.731 293.983, 201.016 296.807, 208.811 304.668 C 224.513 320.505, 226.583 314.718, 213.986 290.200 C 203.319 269.438, 203.004 263.268, 211.783 247 C 222.868 226.461, 222.500 227.492, 222.500 216.953 C 222.500 195.295, 196.416 166.411, 183.750 174.045 M 321.734 174.432 C 291.324 185.282, 283.228 212.276, 300.456 245.378 C 310.339 264.366, 310.237 269.211, 299.490 291.465 C 294.577 301.639, 291 311.431, 291 314.707 C 291 317.130, 296.070 313.633, 302.812 306.560 C 319.846 288.690, 355.765 274.835, 368.501 281.221 C 399.299 296.663, 423.203 284.074, 450.857 237.849 L 453.041 234.197 448.271 231.265 C 411.706 208.789, 364.418 219.470, 359.987 251.205 C 358.751 260.053, 356.817 262.913, 350.397 265.387 C 347.704 266.424, 340.825 269.474, 335.111 272.164 C 329.397 274.854, 324.561 276.894, 324.365 276.698 C 320.047 272.380, 324.179 261.561, 332.318 255.878 C 346.445 246.015, 351.655 239.174, 348.596 234.506 C 345.756 230.172, 341.921 231.096, 334.644 237.866 C 316.801 254.465, 311.043 248.022, 325.220 227.321 C 332.411 216.821, 333.484 211.780, 332.694 192.215 C 331.855 171.465, 331.530 170.936, 321.734 174.432 M 511.252 243.500 C 511.263 245.700, 511.468 246.482, 511.707 245.238 C 511.946 243.994, 511.937 242.194, 511.687 241.238 C 511.437 240.282, 511.241 241.300, 511.252 243.500 M 511.252 268.500 C 511.263 270.700, 511.468 271.482, 511.707 270.238 C 511.946 268.994, 511.937 267.194, 511.687 266.238 C 511.437 265.282, 511.241 266.300, 511.252 268.500 M 150.500 300.698 C 143.388 301.641, 128.007 306.772, 123.283 309.777 L 121.066 311.187 124.142 317.344 C 143.717 356.511, 168.026 370.122, 200.332 360.006 L 211.144 356.620 217.486 358.310 C 224.748 360.245, 228 360.449, 228 358.968 C 228 356.562, 224.966 351.052, 220.116 344.648 C 217.261 340.880, 213.532 335.030, 211.828 331.648 C 197.992 304.192, 182.625 296.437, 150.500 300.698 M 334.389 301.417 C 322.644 304.109, 313.966 310.324, 310.281 318.684 C 302.531 336.262, 301.876 337.358, 294.627 344.867 C 281.844 358.109, 282.029 364.617, 295 358 C 300.199 355.348, 301.837 355.458, 310.225 359.028 C 333.834 369.074, 356.524 361.950, 375.597 338.500 C 387.216 324.215, 393 315.243, 393 311.504 C 393 304.869, 350.924 297.628, 334.389 301.417 M 267.750 511.706 C 268.988 511.944, 271.012 511.944, 272.250 511.706 C 273.488 511.467, 272.475 511.272, 270 511.272 C 267.525 511.272, 266.512 511.467, 267.750 511.706" stroke="none" fill="#f9f9f8" fill-rule="evenodd"/></svg>