<svg xmlns="http://www.w3.org/2000/svg" width="512" height="512" viewBox="0 0 512 512" version="1.1">
    <style>
        path {
            fill: #006401;
        }
        @media (prefers-color-scheme: dark) {
            path {
                fill: #fff;
            }
        }
    </style>
    <path d="M 230.500 1.493 C 196.801 5.007, 146.631 20.277, 135.372 30.447 C 133.713 31.946, 122.921 38.578, 113 44.195 C 107.315 47.415, 91.038 60.060, 89.942 62.109 C 89.385 63.149, 88.562 64, 88.112 64 C 84.776 64, 54.024 99.121, 43.456 115 C 14.640 158.301, -3.662 225.779, 0.932 271.784 C 6.876 331.290, 23.824 375.835, 54.809 413.385 C 62.658 422.896, 87.451 448, 88.996 448 C 89.486 448, 90.531 448.920, 91.318 450.044 C 93.012 452.462, 106.564 462.834, 111.820 465.734 C 119.996 470.246, 136.521 480.475, 136.835 481.218 C 137.020 481.655, 137.582 481.758, 138.085 481.447 C 138.588 481.136, 139 481.434, 139 482.108 C 139 482.782, 139.279 483.055, 139.619 482.714 C 139.960 482.374, 140.831 482.688, 141.555 483.413 C 143.659 485.516, 163.431 493.855, 176.500 498.150 C 232.834 516.667, 283.625 516.605, 340.031 497.950 C 353.095 493.629, 376 483.339, 376 481.791 C 376 481.291, 376.412 481.136, 376.915 481.447 C 377.418 481.758, 377.980 481.612, 378.165 481.121 C 378.461 480.333, 387.950 474.427, 398 468.774 C 411.310 461.288, 443.005 432.051, 457.379 414 C 490.979 371.807, 508.420 323.711, 512.714 261.410 C 516.160 211.408, 490.383 135.928, 455.822 94.822 C 450.247 88.190, 426.252 63, 425.511 63 C 425.413 63, 423.474 61.284, 421.201 59.186 C 416.306 54.666, 403.147 45.119, 397.500 41.991 C 386.929 36.134, 379.431 31.569, 378.765 30.585 C 378.328 29.940, 378.018 29.905, 378 30.500 C 377.983 31.065, 377.650 31.012, 377.235 30.379 C 366.670 14.259, 277.126 -3.369, 230.500 1.493 M 225 43.556 C 69.602 65.366, -10.920 244.371, 76.148 374.463 C 100.561 410.939, 111.096 418.822, 124.373 410.546 C 152.420 393.066, 191.634 380.532, 232.500 375.987 C 246.209 374.462, 246.599 374.248, 247.998 367.511 C 250.797 354.029, 247.547 340.247, 238.147 325.726 C 218.308 295.084, 219.623 272.999, 243.465 236.423 C 255.850 217.423, 261.797 219.885, 277 250.306 C 291.971 280.264, 291.900 296.038, 276.674 322.695 C 267.045 339.553, 262.386 353.477, 263.312 362.628 C 264.341 372.809, 266.688 374.144, 289.500 377.532 C 331.684 383.796, 355.247 391.254, 382.558 406.987 C 399.763 416.898, 401.677 416.578, 415.627 401.460 C 553.124 252.457, 426.776 15.237, 225 43.556 M 250.450 72.787 C 243.148 78.662, 234.699 90.239, 228.036 103.500 C 211.013 137.381, 213.424 163.724, 235.542 185.524 C 240.020 189.937, 245.547 196.498, 247.825 200.106 C 254.474 210.634, 263 211.613, 263 201.849 C 263 200.670, 267.785 194.900, 274.768 187.659 C 304.148 157.193, 303.900 134.698, 273.670 88.326 C 260.263 67.760, 258.318 66.458, 250.450 72.787 M 107.465 109.890 C 95.608 115.053, 101.517 161.672, 116.023 177.409 C 121.671 183.536, 128.126 186.445, 142.994 189.559 C 149.866 190.999, 157.008 192.812, 158.866 193.589 C 160.724 194.365, 162.352 195, 162.483 195 C 162.614 195, 162.986 192.762, 163.310 190.026 C 163.634 187.291, 165.591 181.328, 167.658 176.776 C 177.909 154.202, 168.886 132.407, 143.962 119.534 C 128.409 111.502, 113.072 107.449, 107.465 109.890 M 389.643 112.062 C 349.073 122.943, 335.408 142.552, 345.858 174.891 C 347.704 180.606, 349.454 187.918, 349.746 191.141 C 350.258 196.779, 351.119 198.234, 352.563 195.898 C 353.775 193.937, 359.467 192.140, 369.593 190.519 C 397.747 186.014, 410.181 170.225, 412.530 136 C 414.291 110.323, 410.584 106.446, 389.643 112.062 M 182.736 174.993 C 175.517 180.671, 177.459 211.680, 185.870 225.031 C 187.591 227.764, 190.367 232.169, 192.037 234.819 C 200.198 247.769, 192.732 249.926, 180.569 238.133 C 172.949 230.744, 170.983 229.923, 167.223 232.557 C 160.806 237.051, 165.477 245.483, 179.735 255.140 C 188.843 261.309, 191.853 267.006, 189.393 273.418 C 188.476 275.809, 187.034 275.430, 176.401 270 C 171.016 267.250, 166.005 265, 165.266 265 C 158.879 265, 155.037 259.942, 155.013 251.500 C 154.967 235.756, 140.084 222.258, 120.326 220.042 C 102.373 218.029, 71.667 224.598, 63.302 232.242 L 61.104 234.251 65.187 242.376 C 84.367 280.541, 112.797 295.753, 141.117 283.001 C 153.701 277.335, 156.111 277.446, 173 284.477 C 197.197 294.550, 197.692 294.837, 208.832 305.289 C 220.440 316.178, 221.515 316.519, 221.465 309.295 C 221.429 304.154, 221.133 303.441, 210.960 284 C 206.655 275.772, 206.512 275.211, 206.506 266.469 C 206.499 256.551, 206.356 256.940, 217.565 236.500 L 222.500 227.500 222.496 217.500 C 222.487 193.406, 195.715 164.784, 182.736 174.993 M 320.747 174.495 C 292.100 185.197, 283.580 211.778, 298.948 242.500 C 310.153 264.900, 310.199 268.423, 299.578 290.879 C 286.759 317.981, 287.575 321.332, 303.320 306.245 C 314.455 295.574, 317.506 293.775, 339.500 284.906 C 356.961 277.865, 358.906 277.754, 372 283.051 C 401.381 294.935, 423.969 282.984, 448.139 242.768 C 454.130 232.801, 454.292 233.918, 446.250 229.748 C 406.159 208.959, 365.243 219.441, 359.567 251.954 C 357.886 261.579, 356.881 262.960, 349.785 265.387 C 346.878 266.382, 340.114 269.253, 334.754 271.768 C 323.682 276.964, 323.752 276.977, 323.645 269.597 C 323.550 263.014, 324.054 262.367, 336.679 252.871 C 349.862 242.954, 352.803 237.157, 346.884 232.755 C 343.443 230.196, 340.361 231.708, 330.891 240.603 C 317.369 253.302, 313.179 245.467, 324.493 228.640 C 333.181 215.717, 335.113 205.386, 332.746 184.500 L 331.500 173.500 328 173.297 C 326.075 173.185, 322.811 173.724, 320.747 174.495 M 0.365 258.500 C 0.368 264, 0.536 266.122, 0.738 263.216 C 0.941 260.311, 0.939 255.811, 0.734 253.216 C 0.528 250.622, 0.363 253, 0.365 258.500 M 148.500 300.681 C 120.684 306.920, 118.837 308.789, 126.825 322.615 C 147.074 357.662, 168.097 369.507, 195.507 361.311 C 204.868 358.512, 213.759 357.925, 223.250 359.481 C 227.324 360.149, 228 360.023, 228 358.598 C 228 355.640, 225.071 349.821, 221.710 346.101 C 218.364 342.397, 214.301 335.952, 207.473 323.513 C 196.683 303.858, 173.811 295.003, 148.500 300.681 M 331.500 301.887 C 318.624 305.630, 312.208 311.852, 307 325.651 C 304.013 333.566, 302.821 335.344, 294.996 343.558 C 280.407 358.872, 281.148 363.225, 297.356 357.429 C 302.127 355.723, 302.303 355.733, 307.356 357.982 C 334.496 370.061, 356.044 363.419, 377.613 336.325 C 390.589 320.027, 394.949 311.758, 391.836 309.357 C 382.117 301.862, 346.679 297.474, 331.500 301.887" stroke="none" fill="#046304" fill-rule="evenodd"/>
</svg>